<mxfile host="65bd71144e">
    <diagram id="s_7KsXJpaDy7o52G9ur8" name="第 1 页">
        <mxGraphModel dx="1208" dy="945" grid="1" gridSize="10" guides="1" tooltips="1" connect="1" arrows="1" fold="1" page="1" pageScale="1" pageWidth="827" pageHeight="1169" math="0" shadow="0">
            <root>
                <mxCell id="0"/>
                <mxCell id="1" parent="0"/>
                <mxCell id="3" value="拥有" style="rhombus;whiteSpace=wrap;html=1;" vertex="1" parent="1">
                    <mxGeometry x="330" y="309" width="80" height="80" as="geometry"/>
                </mxCell>
                <mxCell id="4" value="" style="group" vertex="1" connectable="0" parent="1">
                    <mxGeometry x="149" y="416" width="442" height="358" as="geometry"/>
                </mxCell>
                <mxCell id="5" value="一般特征" style="rounded=0;whiteSpace=wrap;html=1;" vertex="1" parent="4">
                    <mxGeometry x="164.5744680851064" y="112.58306188925081" width="112.85106382978724" height="54.9185667752443" as="geometry"/>
                </mxCell>
                <mxCell id="6" value="原植物" style="ellipse;whiteSpace=wrap;html=1;" vertex="1" parent="4">
                    <mxGeometry x="329.1489361702128" y="63.156351791530945" width="112.85106382978724" height="73.22475570032573" as="geometry"/>
                </mxCell>
                <mxCell id="7" value="入药部位" style="ellipse;whiteSpace=wrap;html=1;" vertex="1" parent="4">
                    <mxGeometry x="225.70212765957447" width="112.85106382978724" height="73.22475570032573" as="geometry"/>
                </mxCell>
                <mxCell id="8" value="科" style="ellipse;whiteSpace=wrap;html=1;" vertex="1" parent="4">
                    <mxGeometry x="103.4468085106383" width="112.85106382978724" height="73.22475570032573" as="geometry"/>
                </mxCell>
                <mxCell id="9" value="来源" style="ellipse;whiteSpace=wrap;html=1;" vertex="1" parent="4">
                    <mxGeometry y="63.156351791530945" width="112.85106382978724" height="73.22475570032573" as="geometry"/>
                </mxCell>
                <mxCell id="10" value="药材鉴别" style="ellipse;whiteSpace=wrap;html=1;" vertex="1" parent="4">
                    <mxGeometry y="140.04234527687296" width="112.85106382978724" height="73.22475570032573" as="geometry"/>
                </mxCell>
                <mxCell id="11" value="形状" style="ellipse;whiteSpace=wrap;html=1;" vertex="1" parent="4">
                    <mxGeometry x="329.1489361702128" y="140.04234527687296" width="112.85106382978724" height="73.22475570032573" as="geometry"/>
                </mxCell>
                <mxCell id="12" value="分布" style="ellipse;whiteSpace=wrap;html=1;" vertex="1" parent="4">
                    <mxGeometry x="225.70212765957447" y="207.77524429967426" width="112.85106382978724" height="73.22475570032573" as="geometry"/>
                </mxCell>
                <mxCell id="13" value="采收加工" style="ellipse;whiteSpace=wrap;html=1;" vertex="1" parent="4">
                    <mxGeometry x="103.4468085106383" y="207.77524429967426" width="112.85106382978724" height="73.22475570032573" as="geometry"/>
                </mxCell>
                <mxCell id="14" value="" style="endArrow=none;html=1;entryX=0.5;entryY=1;entryDx=0;entryDy=0;exitX=0.25;exitY=0;exitDx=0;exitDy=0;" edge="1" parent="4" source="5" target="8">
                    <mxGeometry width="50" height="50" relative="1" as="geometry">
                        <mxPoint x="137.30212765957447" y="129.97394136807816" as="sourcePoint"/>
                        <mxPoint x="184.32340425531916" y="84.2084690553746" as="targetPoint"/>
                    </mxGeometry>
                </mxCell>
                <mxCell id="15" value="" style="endArrow=none;html=1;entryX=1;entryY=0.5;entryDx=0;entryDy=0;exitX=0;exitY=0.25;exitDx=0;exitDy=0;" edge="1" parent="4" source="5" target="9">
                    <mxGeometry width="50" height="50" relative="1" as="geometry">
                        <mxPoint x="113.79148936170213" y="188.55374592833874" as="sourcePoint"/>
                        <mxPoint x="160.8127659574468" y="142.78827361563518" as="targetPoint"/>
                    </mxGeometry>
                </mxCell>
                <mxCell id="16" value="" style="endArrow=none;html=1;entryX=0;entryY=0.75;entryDx=0;entryDy=0;exitX=1;exitY=0.5;exitDx=0;exitDy=0;" edge="1" parent="4" source="10" target="5">
                    <mxGeometry width="50" height="50" relative="1" as="geometry">
                        <mxPoint x="121.31489361702128" y="208.69055374592833" as="sourcePoint"/>
                        <mxPoint x="168.33617021276595" y="162.92508143322476" as="targetPoint"/>
                    </mxGeometry>
                </mxCell>
                <mxCell id="17" value="" style="endArrow=none;html=1;entryX=0.25;entryY=1;entryDx=0;entryDy=0;exitX=0.5;exitY=0;exitDx=0;exitDy=0;" edge="1" parent="4" source="13" target="5">
                    <mxGeometry width="50" height="50" relative="1" as="geometry">
                        <mxPoint x="177.7404255319149" y="223.3355048859935" as="sourcePoint"/>
                        <mxPoint x="224.7617021276596" y="177.5700325732899" as="targetPoint"/>
                    </mxGeometry>
                </mxCell>
                <mxCell id="18" value="" style="endArrow=none;html=1;entryX=0.75;entryY=1;entryDx=0;entryDy=0;exitX=0.5;exitY=0;exitDx=0;exitDy=0;" edge="1" parent="4" source="12" target="5">
                    <mxGeometry width="50" height="50" relative="1" as="geometry">
                        <mxPoint x="204.07234042553193" y="237.98045602605862" as="sourcePoint"/>
                        <mxPoint x="251.0936170212766" y="192.21498371335505" as="targetPoint"/>
                    </mxGeometry>
                </mxCell>
                <mxCell id="19" value="" style="endArrow=none;html=1;entryX=1;entryY=0.75;entryDx=0;entryDy=0;exitX=0;exitY=0.5;exitDx=0;exitDy=0;" edge="1" parent="4" source="11" target="5">
                    <mxGeometry width="50" height="50" relative="1" as="geometry">
                        <mxPoint x="393.09787234042557" y="313.0358306188925" as="sourcePoint"/>
                        <mxPoint x="440.11914893617023" y="267.27035830618894" as="targetPoint"/>
                    </mxGeometry>
                </mxCell>
                <mxCell id="20" value="" style="endArrow=none;html=1;entryX=0;entryY=0.5;entryDx=0;entryDy=0;exitX=1;exitY=0.25;exitDx=0;exitDy=0;" edge="1" parent="4" source="5" target="6">
                    <mxGeometry width="50" height="50" relative="1" as="geometry">
                        <mxPoint x="381.8127659574468" y="311.20521172638433" as="sourcePoint"/>
                        <mxPoint x="428.8340425531915" y="265.4397394136808" as="targetPoint"/>
                    </mxGeometry>
                </mxCell>
                <mxCell id="21" value="" style="endArrow=none;html=1;entryX=0.5;entryY=1;entryDx=0;entryDy=0;exitX=0.75;exitY=0;exitDx=0;exitDy=0;" edge="1" parent="4" source="5" target="7">
                    <mxGeometry width="50" height="50" relative="1" as="geometry">
                        <mxPoint x="218.17872340425532" y="127.22801302931596" as="sourcePoint"/>
                        <mxPoint x="265.2" y="81.46254071661238" as="targetPoint"/>
                    </mxGeometry>
                </mxCell>
                <mxCell id="22" value="拥有" style="rhombus;whiteSpace=wrap;html=1;" vertex="1" parent="4">
                    <mxGeometry x="333" y="266" width="80" height="80" as="geometry"/>
                </mxCell>
                <mxCell id="23" value="" style="endArrow=none;html=1;exitX=1;exitY=1;exitDx=0;exitDy=0;entryX=0.5;entryY=0;entryDx=0;entryDy=0;" edge="1" parent="4" source="5" target="22">
                    <mxGeometry width="50" height="50" relative="1" as="geometry">
                        <mxPoint x="344" y="71" as="sourcePoint"/>
                        <mxPoint x="394" y="21" as="targetPoint"/>
                    </mxGeometry>
                </mxCell>
                <mxCell id="24" value="拥有" style="rhombus;whiteSpace=wrap;html=1;" vertex="1" parent="4">
                    <mxGeometry x="16" y="278" width="80" height="80" as="geometry"/>
                </mxCell>
                <mxCell id="25" value="" style="endArrow=none;html=1;entryX=0;entryY=1;entryDx=0;entryDy=0;exitX=0.5;exitY=0;exitDx=0;exitDy=0;" edge="1" parent="4" source="24" target="5">
                    <mxGeometry width="50" height="50" relative="1" as="geometry">
                        <mxPoint x="70" y="307" as="sourcePoint"/>
                        <mxPoint x="358" y="319" as="targetPoint"/>
                    </mxGeometry>
                </mxCell>
                <mxCell id="26" value="" style="endArrow=none;html=1;entryX=0.5;entryY=1;entryDx=0;entryDy=0;exitX=0.5;exitY=0;exitDx=0;exitDy=0;" edge="1" parent="1" source="5" target="3">
                    <mxGeometry width="50" height="50" relative="1" as="geometry">
                        <mxPoint x="363" y="398" as="sourcePoint"/>
                        <mxPoint x="413" y="348" as="targetPoint"/>
                    </mxGeometry>
                </mxCell>
                <mxCell id="27" value="" style="group" vertex="1" connectable="0" parent="1">
                    <mxGeometry x="23" y="829" width="364" height="159" as="geometry"/>
                </mxCell>
                <mxCell id="28" value="现代医学特征" style="rounded=0;whiteSpace=wrap;html=1;container=0;" vertex="1" parent="27">
                    <mxGeometry x="133.89427312775328" y="57.81818181818182" width="96.2114537444934" height="43.36363636363637" as="geometry"/>
                </mxCell>
                <mxCell id="29" value="化学成分" style="ellipse;whiteSpace=wrap;html=1;container=0;" vertex="1" parent="27">
                    <mxGeometry width="96.2114537444934" height="57.81818181818182" as="geometry"/>
                </mxCell>
                <mxCell id="30" value="药理" style="ellipse;whiteSpace=wrap;html=1;container=0;" vertex="1" parent="27">
                    <mxGeometry y="101.18181818181819" width="96.2114537444934" height="57.81818181818182" as="geometry"/>
                </mxCell>
                <mxCell id="31" value="现代临床研究" style="ellipse;whiteSpace=wrap;html=1;container=0;" vertex="1" parent="27">
                    <mxGeometry x="267.78854625550656" y="50.59090909090909" width="96.2114537444934" height="57.81818181818182" as="geometry"/>
                </mxCell>
                <mxCell id="32" value="" style="endArrow=none;html=1;entryX=1;entryY=1;entryDx=0;entryDy=0;exitX=0;exitY=0;exitDx=0;exitDy=0;" edge="1" parent="27" source="28" target="29">
                    <mxGeometry width="50" height="50" relative="1" as="geometry">
                        <mxPoint x="117.85903083700438" y="56.37272727272728" as="sourcePoint"/>
                        <mxPoint x="313.488986784141" y="7.950000000000001" as="targetPoint"/>
                    </mxGeometry>
                </mxCell>
                <mxCell id="33" value="" style="endArrow=none;html=1;entryX=0;entryY=1;entryDx=0;entryDy=0;exitX=1;exitY=0;exitDx=0;exitDy=0;" edge="1" parent="27" source="30" target="28">
                    <mxGeometry width="50" height="50" relative="1" as="geometry">
                        <mxPoint x="159.55066079295153" y="174.17727272727274" as="sourcePoint"/>
                        <mxPoint x="199.63876651982378" y="138.04090909090908" as="targetPoint"/>
                    </mxGeometry>
                </mxCell>
                <mxCell id="34" value="" style="endArrow=none;html=1;entryX=0;entryY=0.5;entryDx=0;entryDy=0;exitX=1;exitY=0.5;exitDx=0;exitDy=0;" edge="1" parent="27" source="28" target="31">
                    <mxGeometry width="50" height="50" relative="1" as="geometry">
                        <mxPoint x="224.49339207048456" y="165.50454545454548" as="sourcePoint"/>
                        <mxPoint x="264.58149779735686" y="129.36818181818182" as="targetPoint"/>
                    </mxGeometry>
                </mxCell>
                <mxCell id="35" value="" style="endArrow=none;html=1;entryX=0.5;entryY=1;entryDx=0;entryDy=0;exitX=0.5;exitY=0;exitDx=0;exitDy=0;" edge="1" parent="1" source="28" target="24">
                    <mxGeometry width="50" height="50" relative="1" as="geometry">
                        <mxPoint x="379" y="826" as="sourcePoint"/>
                        <mxPoint x="429" y="776" as="targetPoint"/>
                    </mxGeometry>
                </mxCell>
                <mxCell id="36" value="" style="group" vertex="1" connectable="0" parent="1">
                    <mxGeometry x="137.5" y="30" width="465" height="262" as="geometry"/>
                </mxCell>
                <mxCell id="37" value="苗医药名称" style="rounded=0;whiteSpace=wrap;html=1;container=0;" vertex="1" parent="36">
                    <mxGeometry x="177.90117416829744" y="104.8" width="109.19765166340508" height="52.4" as="geometry"/>
                </mxCell>
                <mxCell id="38" value="中文名" style="ellipse;whiteSpace=wrap;html=1;container=0;" vertex="1" parent="36">
                    <mxGeometry x="100.09784735812133" width="109.19765166340508" height="69.86666666666666" as="geometry"/>
                </mxCell>
                <mxCell id="39" value="英文名" style="ellipse;whiteSpace=wrap;html=1;container=0;" vertex="1" parent="36">
                    <mxGeometry y="96.06666666666666" width="109.19765166340508" height="69.86666666666666" as="geometry"/>
                </mxCell>
                <mxCell id="40" value="拉丁语" style="ellipse;whiteSpace=wrap;html=1;container=0;" vertex="1" parent="36">
                    <mxGeometry x="100.09784735812133" y="192.13333333333333" width="109.19765166340508" height="69.86666666666666" as="geometry"/>
                </mxCell>
                <mxCell id="41" value="异名（地区）" style="ellipse;whiteSpace=wrap;html=1;container=0;" vertex="1" parent="36">
                    <mxGeometry x="355.8023483365949" y="96.06666666666666" width="109.19765166340508" height="69.86666666666666" as="geometry"/>
                </mxCell>
                <mxCell id="42" value="俗名（地区）" style="ellipse;whiteSpace=wrap;html=1;container=0;" vertex="1" parent="36">
                    <mxGeometry x="263.89432485322897" y="192.13333333333333" width="109.19765166340508" height="69.86666666666666" as="geometry"/>
                </mxCell>
                <mxCell id="43" value="苗药名（地区）" style="ellipse;whiteSpace=wrap;html=1;container=0;" vertex="1" parent="36">
                    <mxGeometry x="263.89432485322897" width="109.19765166340508" height="69.86666666666666" as="geometry"/>
                </mxCell>
                <mxCell id="44" value="" style="endArrow=none;html=1;entryX=0.5;entryY=1;entryDx=0;entryDy=0;exitX=0;exitY=0;exitDx=0;exitDy=0;" edge="1" parent="36" source="37" target="38">
                    <mxGeometry width="50" height="50" relative="1" as="geometry">
                        <mxPoint x="209.2954990215264" y="113.53333333333333" as="sourcePoint"/>
                        <mxPoint x="254.7945205479452" y="69.86666666666666" as="targetPoint"/>
                    </mxGeometry>
                </mxCell>
                <mxCell id="45" value="" style="endArrow=none;html=1;exitX=1;exitY=0;exitDx=0;exitDy=0;entryX=0.5;entryY=1;entryDx=0;entryDy=0;" edge="1" parent="36" source="37" target="43">
                    <mxGeometry width="50" height="50" relative="1" as="geometry">
                        <mxPoint x="318.4931506849315" y="113.53333333333333" as="sourcePoint"/>
                        <mxPoint x="363.9921722113503" y="69.86666666666666" as="targetPoint"/>
                    </mxGeometry>
                </mxCell>
                <mxCell id="46" value="" style="endArrow=none;html=1;exitX=1;exitY=0.5;exitDx=0;exitDy=0;entryX=0;entryY=0.5;entryDx=0;entryDy=0;" edge="1" parent="36" source="39" target="37">
                    <mxGeometry width="50" height="50" relative="1" as="geometry">
                        <mxPoint x="118.29745596868885" y="183.4" as="sourcePoint"/>
                        <mxPoint x="163.79647749510764" y="139.73333333333332" as="targetPoint"/>
                    </mxGeometry>
                </mxCell>
                <mxCell id="47" value="" style="endArrow=none;html=1;exitX=1;exitY=0.5;exitDx=0;exitDy=0;entryX=0;entryY=0.5;entryDx=0;entryDy=0;" edge="1" parent="36" source="37" target="41">
                    <mxGeometry width="50" height="50" relative="1" as="geometry">
                        <mxPoint x="318.4931506849315" y="165.93333333333334" as="sourcePoint"/>
                        <mxPoint x="363.9921722113503" y="122.26666666666667" as="targetPoint"/>
                    </mxGeometry>
                </mxCell>
                <mxCell id="48" value="" style="endArrow=none;html=1;entryX=0;entryY=1;entryDx=0;entryDy=0;exitX=0.5;exitY=0;exitDx=0;exitDy=0;" edge="1" parent="36" source="40" target="37">
                    <mxGeometry width="50" height="50" relative="1" as="geometry">
                        <mxPoint x="154.69667318982388" y="192.13333333333333" as="sourcePoint"/>
                        <mxPoint x="191.0958904109589" y="165.93333333333334" as="targetPoint"/>
                    </mxGeometry>
                </mxCell>
                <mxCell id="49" value="" style="endArrow=none;html=1;entryX=1;entryY=1;entryDx=0;entryDy=0;exitX=0.5;exitY=0;exitDx=0;exitDy=0;" edge="1" parent="36" source="42" target="37">
                    <mxGeometry width="50" height="50" relative="1" as="geometry">
                        <mxPoint x="363.9921722113503" y="218.33333333333331" as="sourcePoint"/>
                        <mxPoint x="409.4911937377691" y="174.66666666666666" as="targetPoint"/>
                    </mxGeometry>
                </mxCell>
                <mxCell id="50" value="" style="group" vertex="1" connectable="0" parent="1">
                    <mxGeometry x="501" y="750" width="418" height="263" as="geometry"/>
                </mxCell>
                <mxCell id="51" value="" style="group" vertex="1" connectable="0" parent="50">
                    <mxGeometry x="-15.002988505747133" y="237.3755868544601" width="254.64367816091956" height="50.624413145539904" as="geometry"/>
                </mxCell>
                <mxCell id="52" value="入架" style="ellipse;whiteSpace=wrap;html=1;" vertex="1" parent="51">
                    <mxGeometry x="174.16666666666669" width="80.47701149425286" height="50.62441314553991" as="geometry"/>
                </mxCell>
                <mxCell id="53" value="功效" style="ellipse;whiteSpace=wrap;html=1;" vertex="1" parent="51">
                    <mxGeometry x="85.28160919540232" width="80.47701149425286" height="50.62441314553991" as="geometry"/>
                </mxCell>
                <mxCell id="54" value="主治" style="ellipse;whiteSpace=wrap;html=1;" vertex="1" parent="51">
                    <mxGeometry width="80.47701149425286" height="50.62441314553991" as="geometry"/>
                </mxCell>
                <mxCell id="55" value="民族医学特征" style="rounded=0;whiteSpace=wrap;html=1;" vertex="1" parent="50">
                    <mxGeometry x="42.13218390804593" y="126.24882629107981" width="135.72988505747125" height="67.91079812206573" as="geometry"/>
                </mxCell>
                <mxCell id="56" value="药性" style="ellipse;whiteSpace=wrap;html=1;" vertex="1" parent="50">
                    <mxGeometry x="-15.522988505747094" y="25" width="80.47701149425286" height="50.62441314553991" as="geometry"/>
                </mxCell>
                <mxCell id="57" value="归经" style="ellipse;whiteSpace=wrap;html=1;" vertex="1" parent="50">
                    <mxGeometry x="69.75862068965512" y="25" width="80.47701149425286" height="50.62441314553991" as="geometry"/>
                </mxCell>
                <mxCell id="58" value="制剂" style="ellipse;whiteSpace=wrap;html=1;" vertex="1" parent="50">
                    <mxGeometry x="241.5229885057471" y="212.68075117370893" width="80.47701149425286" height="50.62441314553991" as="geometry"/>
                </mxCell>
                <mxCell id="59" value="其他书籍药性" style="ellipse;whiteSpace=wrap;html=1;" vertex="1" parent="50">
                    <mxGeometry x="161.0459770114942" y="25" width="80.47701149425286" height="50.62441314553991" as="geometry"/>
                </mxCell>
                <mxCell id="60" value="毒性" style="ellipse;whiteSpace=wrap;html=1;" vertex="1" parent="50">
                    <mxGeometry x="241.5229885057471" y="60.80751173708916" width="80.47701149425286" height="50.62441314553991" as="geometry"/>
                </mxCell>
                <mxCell id="61" value="用法用量" style="ellipse;whiteSpace=wrap;html=1;" vertex="1" parent="50">
                    <mxGeometry x="-96" y="194.1596244131456" width="80.47701149425286" height="50.62441314553991" as="geometry"/>
                </mxCell>
                <mxCell id="62" value="验方" style="ellipse;whiteSpace=wrap;html=1;" vertex="1" parent="50">
                    <mxGeometry x="-96" y="134.89201877934272" width="80.47701149425286" height="50.62441314553991" as="geometry"/>
                </mxCell>
                <mxCell id="63" value="使用注意" style="ellipse;whiteSpace=wrap;html=1;" vertex="1" parent="50">
                    <mxGeometry x="-96" y="75.62441314553996" width="80.47701149425286" height="50.62441314553991" as="geometry"/>
                </mxCell>
                <mxCell id="64" value="质征" style="ellipse;whiteSpace=wrap;html=1;" vertex="1" parent="50">
                    <mxGeometry x="241.5229885057471" y="111.43192488262912" width="80.47701149425286" height="50.62441314553991" as="geometry"/>
                </mxCell>
                <mxCell id="65" value="走关" style="ellipse;whiteSpace=wrap;html=1;" vertex="1" parent="50">
                    <mxGeometry x="241.5229885057471" y="162.05633802816897" width="80.47701149425286" height="50.62441314553991" as="geometry"/>
                </mxCell>
                <mxCell id="66" value="" style="endArrow=none;html=1;entryX=0.5;entryY=1;entryDx=0;entryDy=0;exitX=0.25;exitY=0;exitDx=0;exitDy=0;" edge="1" parent="50" source="55" target="56">
                    <mxGeometry width="50" height="50" relative="1" as="geometry">
                        <mxPoint x="-50.356321839080465" y="428.76056338028184" as="sourcePoint"/>
                        <mxPoint x="9.701149425287326" y="367.02347417840383" as="targetPoint"/>
                    </mxGeometry>
                </mxCell>
                <mxCell id="67" value="" style="endArrow=none;html=1;entryX=0.5;entryY=1;entryDx=0;entryDy=0;exitX=0.5;exitY=0;exitDx=0;exitDy=0;" edge="1" parent="50" source="55" target="57">
                    <mxGeometry width="50" height="50" relative="1" as="geometry">
                        <mxPoint x="106.99425287356325" y="144.76995305164314" as="sourcePoint"/>
                        <mxPoint x="167.05172413793093" y="83.03286384976525" as="targetPoint"/>
                    </mxGeometry>
                </mxCell>
                <mxCell id="68" value="" style="endArrow=none;html=1;entryX=0.5;entryY=1;entryDx=0;entryDy=0;" edge="1" parent="50" source="55" target="59">
                    <mxGeometry width="50" height="50" relative="1" as="geometry">
                        <mxPoint x="122.60919540229884" y="433.6995305164319" as="sourcePoint"/>
                        <mxPoint x="182.66666666666663" y="371.96244131455387" as="targetPoint"/>
                    </mxGeometry>
                </mxCell>
                <mxCell id="69" value="" style="endArrow=none;html=1;entryX=0.5;entryY=1;entryDx=0;entryDy=0;exitX=0.5;exitY=0;exitDx=0;exitDy=0;" edge="1" parent="50" target="55">
                    <mxGeometry width="50" height="50" relative="1" as="geometry">
                        <mxPoint x="109.9971264367814" y="237.37558685445993" as="sourcePoint"/>
                        <mxPoint x="108.19540229885058" y="427.5258215962442" as="targetPoint"/>
                    </mxGeometry>
                </mxCell>
                <mxCell id="70" value="" style="endArrow=none;html=1;entryX=0.25;entryY=1;entryDx=0;entryDy=0;exitX=0.5;exitY=0;exitDx=0;exitDy=0;" edge="1" parent="50" target="55">
                    <mxGeometry width="50" height="50" relative="1" as="geometry">
                        <mxPoint x="24.71551724137953" y="237.37558685445993" as="sourcePoint"/>
                        <mxPoint x="21.71264367816093" y="344.79812206572774" as="targetPoint"/>
                    </mxGeometry>
                </mxCell>
                <mxCell id="71" value="" style="endArrow=none;html=1;entryX=0.75;entryY=1;entryDx=0;entryDy=0;exitX=0.5;exitY=0;exitDx=0;exitDy=0;" edge="1" parent="50" target="55">
                    <mxGeometry width="50" height="50" relative="1" as="geometry">
                        <mxPoint x="198.88218390804604" y="237.37558685445993" as="sourcePoint"/>
                        <mxPoint x="216.29885057471256" y="341.0938967136151" as="targetPoint"/>
                    </mxGeometry>
                </mxCell>
                <mxCell id="72" value="" style="endArrow=none;html=1;entryX=1;entryY=0.5;entryDx=0;entryDy=0;exitX=0;exitY=0.25;exitDx=0;exitDy=0;" edge="1" parent="50" source="55" target="63">
                    <mxGeometry width="50" height="50" relative="1" as="geometry">
                        <mxPoint x="-20.327586206896513" y="425.05633802816897" as="sourcePoint"/>
                        <mxPoint x="39.72988505747128" y="363.3192488262912" as="targetPoint"/>
                    </mxGeometry>
                </mxCell>
                <mxCell id="73" value="" style="endArrow=none;html=1;entryX=0;entryY=0.5;entryDx=0;entryDy=0;exitX=1;exitY=0.5;exitDx=0;exitDy=0;" edge="1" parent="50" source="62" target="55">
                    <mxGeometry width="50" height="50" relative="1" as="geometry">
                        <mxPoint x="-69.57471264367814" y="388.0140845070423" as="sourcePoint"/>
                        <mxPoint x="-9.517241379310349" y="326.2769953051643" as="targetPoint"/>
                    </mxGeometry>
                </mxCell>
                <mxCell id="74" value="" style="endArrow=none;html=1;entryX=0;entryY=0.75;entryDx=0;entryDy=0;exitX=1;exitY=0.5;exitDx=0;exitDy=0;" edge="1" parent="50" source="61" target="55">
                    <mxGeometry width="50" height="50" relative="1" as="geometry">
                        <mxPoint x="-52.758620689655174" y="379.3708920187794" as="sourcePoint"/>
                        <mxPoint x="7.298850574712674" y="317.6338028169014" as="targetPoint"/>
                    </mxGeometry>
                </mxCell>
                <mxCell id="75" value="" style="endArrow=none;html=1;entryX=0;entryY=0.5;entryDx=0;entryDy=0;exitX=1;exitY=0;exitDx=0;exitDy=0;" edge="1" parent="50" source="55" target="60">
                    <mxGeometry width="50" height="50" relative="1" as="geometry">
                        <mxPoint x="199.48275862068965" y="406.5352112676055" as="sourcePoint"/>
                        <mxPoint x="259.54022988505744" y="344.79812206572774" as="targetPoint"/>
                    </mxGeometry>
                </mxCell>
                <mxCell id="76" value="" style="endArrow=none;html=1;entryX=0;entryY=0.5;entryDx=0;entryDy=0;exitX=0.995;exitY=0.382;exitDx=0;exitDy=0;exitPerimeter=0;" edge="1" parent="50" source="55" target="64">
                    <mxGeometry width="50" height="50" relative="1" as="geometry">
                        <mxPoint x="163.44827586206895" y="392.95305164319257" as="sourcePoint"/>
                        <mxPoint x="223.50574712643675" y="331.21596244131456" as="targetPoint"/>
                    </mxGeometry>
                </mxCell>
                <mxCell id="77" value="" style="endArrow=none;html=1;entryX=0;entryY=0.5;entryDx=0;entryDy=0;exitX=1;exitY=0.75;exitDx=0;exitDy=0;" edge="1" parent="50" source="55" target="65">
                    <mxGeometry width="50" height="50" relative="1" as="geometry">
                        <mxPoint x="108.19540229885058" y="383.07511737089203" as="sourcePoint"/>
                        <mxPoint x="168.25287356321837" y="321.338028169014" as="targetPoint"/>
                    </mxGeometry>
                </mxCell>
                <mxCell id="78" value="" style="endArrow=none;html=1;entryX=1;entryY=1;entryDx=0;entryDy=0;exitX=0;exitY=0.5;exitDx=0;exitDy=0;" edge="1" parent="50" source="58" target="55">
                    <mxGeometry width="50" height="50" relative="1" as="geometry">
                        <mxPoint x="167.05172413793093" y="432.4647887323945" as="sourcePoint"/>
                        <mxPoint x="227.10919540229884" y="370.7276995305165" as="targetPoint"/>
                    </mxGeometry>
                </mxCell>
                <mxCell id="79" value="" style="endArrow=none;html=1;entryX=0.5;entryY=1;entryDx=0;entryDy=0;exitX=0.5;exitY=0;exitDx=0;exitDy=0;" edge="1" parent="1" source="3" target="37">
                    <mxGeometry width="50" height="50" relative="1" as="geometry">
                        <mxPoint x="482" y="362" as="sourcePoint"/>
                        <mxPoint x="532" y="312" as="targetPoint"/>
                    </mxGeometry>
                </mxCell>
                <mxCell id="80" value="" style="endArrow=none;html=1;entryX=0.5;entryY=1;entryDx=0;entryDy=0;exitX=0;exitY=0;exitDx=0;exitDy=0;" edge="1" parent="1" source="55" target="22">
                    <mxGeometry width="50" height="50" relative="1" as="geometry">
                        <mxPoint x="414" y="812" as="sourcePoint"/>
                        <mxPoint x="464" y="762" as="targetPoint"/>
                        <Array as="points">
                            <mxPoint x="442" y="783"/>
                        </Array>
                    </mxGeometry>
                </mxCell>
            </root>
        </mxGraphModel>
    </diagram>
</mxfile>